<?xml version="1.0" encoding="utf-8"?>
<!-- Generator: Adobe Illustrator 25.0.1, SVG Export Plug-In . SVG Version: 6.00 Build 0)  -->
<svg version="1.1" id="Layer_1" xmlns="http://www.w3.org/2000/svg" xmlns:xlink="http://www.w3.org/1999/xlink" x="0px" y="0px"
	 viewBox="0 0 827.63 303.84" style="enable-background:new 0 0 827.63 303.84;" xml:space="preserve">
<style type="text/css">
	.st0{fill:#594E58;}
	.st1{fill:#875DF4;}
	.st2{fill:#9F6BB2;}
	.st3{fill:#B17680;}
	.st4{fill:#B47878;}
	.st5{fill:#9C6AB9;}
	.st6{fill:#9A69BF;}
	.st7{fill:#A16DAB;}
	.st8{fill:#AA7291;}
	.st9{fill:#B07584;}
	.st10{fill:#9767C8;}
	.st11{fill:#BA7D67;}
	.st12{fill:#9868C4;}
	.st13{fill:#C5834F;}
	.st14{fill:#A56FA1;}
	.st15{fill:#9867C5;}
	.st16{fill:#A7709A;}
	.st17{fill:#AB738F;}
	.st18{fill:#A97294;}
	.st19{fill:#AE7588;}
	.st20{fill:#D78E37;}
	.st21{fill:#A670A1;}
	.st22{fill:#CF8940;}
	.st23{fill:#A470A6;}
	.st24{fill:#895FF4;}
	.st25{fill:#AE7487;}
	.st26{fill:#9A69BE;}
	.st27{fill:#9E6BB4;}
	.st28{fill:#895EEF;}
	.st29{fill:#9566CE;}
	.st30{fill:#BC7D63;}
	.st31{fill:#A36EA5;}
	.st32{fill:#DFA967;}
	.st33{fill:#8B5FE9;}
	.st34{fill:#8C60E5;}
	.st35{fill:#8F62DC;}
	.st36{fill:#B77972;}
	.st37{fill:#9364D4;}
	.st38{fill:#B87B6C;}
	.st39{fill:#8F62DE;}
	.st40{fill:#A7709B;}
	.st41{fill:#A87196;}
	.st42{fill:#AC738C;}
	.st43{fill:#9164D7;}
	.st44{fill:#9365D2;}
	.st45{fill:#BE7F5E;}
	.st46{fill:#C18059;}
	.st47{fill:#C38153;}
	.st48{fill:#C98546;}
	.st49{fill:#D28A3A;}
	.st50{fill:#895EED;}
	.st51{fill:#A16DAC;}
	.st52{fill:#885DF4;}
	.st53{fill:#8B5FE8;}
	.st54{fill:#241723;}
	.st55{fill:#FBFBFB;}
	.st56{fill:#FEFEFE;}
	.st57{fill:#FDFDFD;}
	.st58{fill:#241823;}
</style>
<g>
	<path class="st0" d="M300.89,150.37c-0.99-1.28-0.34-2.74-0.45-4.11C301.21,147.56,300.75,148.99,300.89,150.37z"/>
	<path class="st0" d="M300.43,143.97c0.1-1.21-0.49-2.5,0.44-3.61C300.78,141.58,301.18,142.85,300.43,143.97z"/>
	<g>
		<path class="st1" d="M216.31,236.8c-8.04-0.03-14.43-6.7-14.4-15.01c0.03-7.48,6.24-14.36,14.6-14.29
			c8.37,0.07,14.68,6.55,14.72,14.73C231.26,230.38,224.47,236.83,216.31,236.8z"/>
		<path class="st2" d="M191.53,82.65c4.95-0.27,9.9-0.3,14.85,0.01c0.51,0.82-0.08,1.45-0.45,2.04c-3.35,5.35-6.14,11.02-9.22,16.51
			c-2.52,4.48-5,8.99-7.41,13.53c-2.1,3.96-4.47,7.77-6.84,11.58c-0.26,0.42-0.58,0.82-0.79,1.27
			c-4.46,9.48-10.28,18.21-15.18,27.45c-2.69,5.07-5.67,9.97-8.63,14.88c-0.84,1.39-0.78,3.29-2.4,4.21
			c-4.48,0.27-8.97,0.26-13.45,0c0.61-1.32,1.84-0.88,2.82-0.89c2.26-0.02,3.61-1.01,4.65-3.06c3.21-6.3,6.83-12.39,10.38-18.51
			c2.72-4.68,4.9-9.65,7.79-14.23c5.83-9.21,10.7-18.97,16.11-28.42c4.41-7.71,8.93-15.39,12.9-23.36c0.79-1.59,0.38-2.03-1.24-2.19
			C194.1,83.37,192.55,84.12,191.53,82.65z"/>
		<path class="st3" d="M99.35,171.87c-0.94-2.26-1.57-4.61-2.03-7.01c1.22-0.22,1.3,0.81,1.59,1.51c0.66,1.62,1.28,1.23,1.92,0.03
			c2.04-3.81,4.16-7.57,6.28-11.34c3.91-6.94,7.78-13.9,11.76-20.81c4.72-8.21,9.35-16.47,13.95-24.74
			c4.52-8.12,9.11-16.21,13.61-24.35c0.4-0.73,0.76-1.48,1.44-2.01c1.63-0.53,3.3-0.26,4.95-0.23c1.96,0.03,2.27,0.68,1.28,2.56
			c-2.55,4.86-5.11,9.71-7.97,14.4c-3.37,5.53-6.07,11.44-9.4,17c-4.91,8.2-9.44,16.61-14.17,24.91c-2.63,4.61-5.01,9.39-7.73,13.95
			c-4.25,7.14-7.87,14.62-12.2,21.7c-1.39,2.27-2.53,4.68-4.09,6.85c-0.52,0.72-0.99,1.93-2,1.46c-0.96-0.45-0.35-1.6-0.19-2.45
			l-0.03,0.03c1.63-2.51,2.42-5.39,3.46-8.15C100.16,174.2,100.24,172.87,99.35,171.87z"/>
		<path class="st4" d="M147.9,83.39c-3.76,7.08-7.95,13.92-11.68,21c-3.93,7.45-8.45,14.56-12.31,22.05
			c-2.29,4.44-4.97,8.69-7.41,13.06c-5.23,9.37-10.41,18.76-15.59,28.16c-0.29,0.53-0.48,1.16-1.19,1.01
			c-0.58-0.12-1.03-0.62-1.19-1.19c-0.26-0.95-0.22-2.01-1.22-2.6c-1.58-4.42-2.84-8.93-3.96-13.48c0.22-0.14,0.45-0.16,0.69-0.05
			c0.48,0.43,0.71,1,0.89,1.6c0.75,2.2,1.27,4.47,2.41,7.02c1.42-2.06,2.5-4.05,3.55-6.02c5.02-9.38,10.5-18.51,15.58-27.85
			c5.96-10.95,12.36-21.65,18.2-32.67c1.63-3.08,3.55-6.02,5.16-9.12c0.35-0.68,0.84-1.25,1.68-1.36
			C143.65,83.08,145.83,82.38,147.9,83.39z"/>
		<path class="st5" d="M155.45,174.13c1.09-4.25,3.91-7.62,5.91-11.4c2.54-4.8,5.22-9.55,8.09-14.16c3-4.84,5.11-10.2,8.66-14.73
			c0.63-0.8,0.81-1.93,1.25-2.88c2.57-5.56,6.16-10.54,9.07-15.9c4.4-8.12,8.91-16.18,13.34-24.28c1.49-2.73,3.37-5.25,4.6-8.12
			c3.97-0.31,7.95-0.29,11.92-0.01c-0.05,0.26-0.2,0.45-0.43,0.57c-0.33,0.06,0.09,0.1-0.23,0.08c-4.91-0.33-7.07,2.71-8.89,6.69
			c-2.28,4.98-5.5,9.46-8.05,14.32c-6.14,11.69-12.77,23.1-19.27,34.59c-5.93,10.47-11.77,21-17.65,31.49
			c-1.29,2.31-1.25,2.32,1.46,2.92c0.47,0.1,1.01,0.16,1.07,0.82C162.68,174.4,159.07,174.4,155.45,174.13z"/>
		<path class="st6" d="M166.3,174.14c-1.31-0.93-3.49,0.74-4.24-1.06c-0.63-1.5,1.06-2.66,1.73-3.96c1.54-3,3.27-5.91,4.91-8.86
			c3.51-6.33,6.95-12.7,10.52-19c4.06-7.16,8.31-14.22,12.33-21.41c3.74-6.67,7.26-13.47,10.95-20.17
			c2.78-5.05,5.73-10.02,8.49-15.08c1.05-1.92,2.96-1.02,4.39-1.64c0.69-0.3,1.64-0.04,2.47-0.03c0.04,1.58-0.9,2.88-1.59,4.1
			c-2.28,4.04-3.96,8.4-6.57,12.27c-1.72,2.54-3.16,5.28-4.65,7.97c-4.91,8.87-10.01,17.63-14.9,26.5
			c-5.37,9.74-10.69,19.51-16.35,29.08c-1.77,3-2.94,6.35-5.11,9.12c-0.53,0.68,0.36,1.75-0.73,2.17
			C167.4,174.14,166.85,174.14,166.3,174.14z"/>
		<path class="st7" d="M191.53,82.65c1.54,0.51,3.14,0.09,4.7,0.24c1.66,0.16,2.4,0.6,1.41,2.51c-4.13,7.96-8.64,15.72-13.01,23.54
			c-3.58,6.4-7.45,12.7-10.89,19.17c-3.86,7.27-8.57,14.05-11.96,21.6c-2.08,4.64-5.11,8.85-7.65,13.29
			c-1.46,2.55-2.91,5.13-4.16,7.79c-0.99,2.11-2.49,3.07-4.77,3.08c-1.06,0.01-2.16-0.29-3.18,0.27c-2.87,0.24-5.73,0.26-8.6-0.01
			c-0.02-0.27,0.07-0.47,0.31-0.6c0.23-0.11,0.46-0.18,0.71-0.22c2.15-0.14,4.31-0.13,6.46-0.46c1.52-0.23,2.42-0.91,3.03-2.21
			c3.47-7.48,7.94-14.41,11.94-21.59c5.54-9.94,11.19-19.83,16.75-29.75c5.61-10,11.51-19.84,16.73-30.07
			c0.42-0.82,0.98-1.55,1.42-2.35c1.43-2.55,1.15-3.05-1.82-3.31c-1.16-0.1-2.33-0.02-3.5,0c-1.54,0.09-3.07,0.03-4.61-0.02
			c-0.85-0.03-1.83,0.14-2.3-0.9C182.86,82.38,187.19,82.37,191.53,82.65z"/>
		<path class="st8" d="M112.5,174.14c-2.16,0.54-4.5-0.48-6.59,0.73c-0.29-0.34-0.3-0.7-0.11-1.09c0.19-0.19,0.41-0.34,0.66-0.44
			c1.9-0.68,3.87-0.7,5.85-0.65c0.63,0,1.27,0,1.9,0.01c1.34,0.22,2.09-0.45,2.81-1.55c2.41-3.7,4.26-7.72,6.47-11.54
			c3.87-6.7,7.42-13.58,11.38-20.22c4.86-8.15,9.06-16.65,13.82-24.86c4.8-8.28,9.62-16.54,14-25.05c0.65-1.26,1.61-2.33,2.29-3.57
			c0.48-0.87,0.81-1.8-0.79-1.85c-0.78-0.01-1.55,0.02-2.33-0.09c-0.41-0.08-0.78-0.25-1.06-0.58c-0.08-0.3,0.02-0.53,0.29-0.69
			c1.77-0.1,3.55-0.02,5.32-0.05c1.22,0.32,2.47,0.21,3.72,0.26c2.23,0.09,2.83,1.11,1.7,3.06c-2.14,3.66-4.25,7.34-6.36,11.01
			c-3.02,5.25-5.82,10.62-8.87,15.84c-3.69,6.31-7.1,12.77-10.78,19.09c-2.8,4.8-5.3,9.79-8.04,14.63
			c-4.71,8.3-9.48,16.57-14.04,24.96c-0.43,0.8-0.92,1.59-1.71,2.12c-0.23,0.13-0.48,0.2-0.75,0.22c-1.18,0.11-2.38-0.12-3.53,0.25
			C115.98,174.15,114.24,174.03,112.5,174.14z"/>
		<path class="st9" d="M147.9,83.39c-2.33,0-4.67,0-7,0c-0.28,0.14-0.58,0.2-0.89,0.2c-5.23,0.02-10.46-0.06-15.68,0.05
			c-6.37-0.11-12.74-0.01-19.1-0.05c-1.07-0.01-2.15,0.12-3.2-0.25c-0.31-0.14-0.51-0.37-0.61-0.7c3.9-0.06,7.8-0.17,11.7-0.16
			c10.14,0.03,20.27,0.1,30.41,0.16c3.64,0.02,7.28,0,10.92,0.01c1.04,0.34,2.16,0.1,3.21,0.44c0.95,1.13,0.04,2.03-0.45,2.89
			c-4.57,7.91-8.98,15.91-13.41,23.9c-6.28,11.33-12.61,22.63-19.06,33.86c-5,8.69-9.3,17.79-14.99,26.09
			c-1.08,1.57-1.25,3.92-3.83,4.03l-0.01,0.01c-1.54,5.22-3.73,10.18-6.36,14.92c-2.17,3.91-4.87,7.52-6.47,11.75
			c-0.64,1.69-1.74,3.02-3.44,3.74c-0.7,0.3-1.51,0.82-1.76-0.51c2.48-6.97,5.33-13.79,8.5-20.48c0.05,0.72,0.1,1.44,0.2,2.77
			c1.48-2.21,2.82-3.86,3.79-5.7c3.82-7.31,7.74-14.59,11.88-21.69c6.19-10.63,11.89-21.53,18.14-32.11c4.48-7.59,8.77-15.28,13-23
			c3.41-6.21,7.18-12.22,10.33-18.58c0.83-1.68,0.13-1.62-1.06-1.61C151.06,83.39,149.48,83.39,147.9,83.39z"/>
		<path class="st10" d="M188.89,174.13c-3.86,0.28-7.72,0.25-11.59,0.01c-1.24-0.09-2.48-0.06-3.73-0.27
			c-1.7-0.28-1.99-1.31-1.14-2.47c2.19-2.97,3.23-6.54,5.32-9.59c2.53-3.7,4.01-8.03,6.49-11.78c3.31-5,6.03-10.35,8.88-15.6
			c3.59-6.64,7.51-13.11,11.12-19.74c4.49-8.23,8.9-16.54,13.99-24.45c1.12-1.74,1.99-3.66,2.76-5.59c0.49-1.22,1.27-1.74,2.64-1.82
			c2.24-0.13,4.47-0.32,6.71-0.1c0.31,1.05-0.57,1.16-1.12,1.15c-2.04-0.06-2.95,1.28-3.74,2.8c-4.72,8.97-9.89,17.7-14.75,26.6
			c-3.63,6.64-7.69,13.05-11.14,19.76c-3.62,7.02-8.01,13.59-11.56,20.65c-2.72,5.42-6.14,10.47-8.91,15.88
			c-1.69,3.3-1.53,3.53,2.21,3.61c0.25-0.01,0.5-0.01,0.75-0.01c0.89,0.01,1.77,0.02,2.66,0c0.38-0.01,0.76-0.01,1.15,0.01
			c0.89,0.04,1.8-0.05,2.66,0.31C188.8,173.64,188.92,173.85,188.89,174.13z"/>
		<path class="st11" d="M101.41,82.8c7.68,0.05,15.35,0.1,23.03,0.15c1.09,0.45,2.25,0.03,3.36,0.26c1.05,1.04,0.32,2.01-0.18,2.92
			c-6,10.92-12.21,21.72-18.4,32.54c-3.41,5.97-6.54,12.1-10.13,17.98c-1.32,2.17-2.18,4.65-3.6,6.8c-0.79,1.2-1.3,2.76-3.04,3.04
			c-0.44-0.59-0.79-1.22-0.8-1.99c-0.79-1.07-0.22-2.65-1.34-3.61c-1.32-4.12-2.8-8.2-3.49-12.49c0.22-0.17,0.46-0.19,0.7-0.05
			c1.12,1.82,1.3,3.99,2.2,5.9c0.36,1.54,0.89,3.02,1.69,5.07c10.3-18.51,20.65-36.51,30.72-55.03c-1.71-0.47-3.26-0.2-4.78-0.2
			c-1.7,0.02-3.39,0.07-5.08,0.02c-2.12,0.03-4.24,0.09-6.35,0c-2,0.05-4.01,0.07-6.01,0.02c-1.54-0.35-3.54,0.91-4.56-1.29
			C97.37,82.49,99.39,82.58,101.41,82.8z"/>
		<path class="st12" d="M167.94,174.14c-0.8-3.01,1.82-4.65,2.91-6.82c3.97-7.89,8.79-15.33,13-23.09
			c3.99-7.36,8.26-14.57,12.19-21.95c3.94-7.42,8.08-14.74,12.36-21.95c2.21-3.72,3.61-7.89,6.34-11.32
			c1.43-1.79,1.27-4.46,3.11-6.08c0.15-0.09,0.3-0.18,0.44-0.27c0.23,0,0.47-0.01,0.7-0.01c2.28,0.14,2.55,0.66,1.43,2.91
			c-1.82,3.65-4.12,7.04-6.03,10.63c-5.24,9.83-10.91,19.43-16.35,29.16c-6.86,12.26-13.62,24.57-20.65,36.73
			c-1.91,3.31-3.87,6.61-5.6,10.02c-0.64,1.26-1.42,1.99-2.82,2.05C168.63,174.14,168.29,174.14,167.94,174.14z"/>
		<path class="st13" d="M95.4,82.96c1.43,0.86,3.01,0.22,4.5,0.43c0.45,1.03,0.1,1.98-0.41,2.83c-4.83,8-9.46,16.12-13.81,24.39
			c-0.67,1.28-1.44,2.8-3.41,1.77c-0.95-2.62-1.59-5.33-2.43-7.98c-1.48-2.7-1.88-5.76-2.79-8.64c-2.05-6.52-3.86-13.11-5.73-19.68
			c-0.25-0.86-0.3-1.78-0.45-2.67c0.24-0.16,0.48-0.15,0.7,0.04c0.25,0.3,0.41,0.66,0.5,1.04c1.44,4.36,2.68,8.79,4.01,13.18
			c1.34,4.34,2.68,8.67,4.2,13.47c2.66-4.26,5.09-8.08,6.96-12.22c0.38-0.83,0.76-1.66,1.2-2.47c1.2-2.2,1.09-2.38-1.53-2.42
			c-1.66-0.02-3.33,0.02-4.99-0.02c-1.1-0.03-2.17-0.15-2.92-1.11c-1.85-3.88-2.51-8.09-3.5-12.22c-0.12-0.49,0.02-0.98,0.42-1.34
			c1.53,2.87,1.91,6.1,2.89,9.14c0.46,1.42,0.78,2.86,1.7,4.08c4.16,0.17,8.32,0.01,12.48,0.09C93.8,82.67,94.66,82.37,95.4,82.96z"
			/>
		<path class="st14" d="M154.94,82.94c-3.8-0.27-7.62,0.28-11.41-0.3c10.1-0.05,20.19-0.11,30.29-0.15c1.57-0.01,3.14,0.1,4.71,0.16
			c2.44,0.56,4.92,0.03,7.37,0.3c0.16,0.21,0.21,0.44,0.15,0.7c-4.32,9.35-9.98,17.97-14.83,27.04c-2.07,3.87-4.35,7.63-6.33,11.57
			c-1.73,3.45-3.89,6.74-5.81,10.14c-4.21,7.44-8.2,15-12.56,22.34c-3.39,5.71-6.1,11.79-9.76,17.34c-0.32,0.48-0.58,1.01-1.11,1.32
			c-0.51,0.38-1.21,0.01-1.71,0.42c-0.17,0.03-0.35,0.07-0.52,0.1c-1.34,0.4-2.71,0.09-4.06,0.18c-1.28-0.82-0.02-1.15,0.37-1.15
			c2.33,0,3.16-1.61,4.19-3.31c6.77-11.16,12.76-22.77,19.27-34.08c7.13-12.4,13.94-24.98,21.04-37.39
			c2.15-3.75,4.12-7.6,6.32-11.33c1.36-2.29,1.1-2.43-1.43-2.91c-2.39-0.46-4.82-0.13-7.18-0.69c-1.65-0.35-3.34,0.18-4.98-0.3
			c-2.01,0-4.03,0.01-6.04,0.01C158.91,84.15,156.92,82.79,154.94,82.94z"/>
		<path class="st15" d="M168.97,174.14c2.88-1.41,3.33-4.57,4.81-6.93c3.62-5.79,6.91-11.8,10.23-17.78
			c5.18-9.33,10.26-18.71,15.4-28.06c2.12-3.86,4.36-7.65,6.58-11.44c3.47-5.92,6.52-12.06,10.08-17.92
			c1.37-2.26,2.64-4.57,3.94-6.87c0.68-1.21,0.92-2.29-1-2.48c5.96-0.26,11.91-0.3,17.87,0.02c-0.11,0.29-0.3,0.5-0.58,0.63
			c-2,0.29-4.02,0.73-5.94-0.35c-1.98,0.03-3.95,0.03-5.95,0.24c-1.97,0.2-2.67,1.13-3.26,2.69c-1.62,4.27-4.31,7.98-6.59,11.87
			c-2.59,4.41-4.9,8.98-7.5,13.39c-3.22,5.48-6.23,11.09-9.35,16.63c-3.19,5.66-6.43,11.27-9.45,17.03
			c-1.64,3.12-3.75,6.02-5.42,9.17c-2.82,5.3-5.72,10.55-8.63,15.8c-2.05,3.7-2.09,3.67,2.43,4.12c0.24,0.02,0.46,0.18,0.69,0.27
			C174.52,174.39,171.75,174.4,168.97,174.14z"/>
		<path class="st16" d="M102.91,210.37c1.23,0.12,1.86,1.05,2.52,1.92c0.58,0.91,1.23,1.76,1.79,2.67c0.74,1.21,0.8,2.38-0.01,3.7
			c-2.99,4.86-5.71,9.88-8.55,14.83c-1.95,3.4-2.02,3.49-6.31,2.87c-1.12,0.07-2.09-0.39-3.02-0.94
			c4.25-7.38,8.42-14.81,12.58-22.25C102.41,212.28,102.42,211.24,102.91,210.37z"/>
		<path class="st17" d="M83.85,231.36c-3.06-3.52-4.35-7.48-2.97-12.09c1.18,1.36,0.38,3.06,0.76,4.55c0.2,0.77,0.01,1.91,0.96,2.11
			c0.82,0.17,1.08-0.89,1.47-1.48c3.05-4.67,5.59-9.64,8.31-14.5c0.32-0.58,0.47-1.25,1.02-1.69c1.53-0.85,3.13-0.2,4.64-0.05
			c1.26,0.13,1.99,1.15,1.51,2.59c-0.21,0.63-0.47,1.25-0.82,1.82c-3.76,6.08-6.76,12.59-10.66,18.59
			C86.71,233.31,86.56,233.3,83.85,231.36z"/>
		<path class="st18" d="M83.85,231.36c2.6,2.1,3.45,0,4.48-1.83c3.34-5.91,6.76-11.77,10.05-17.7c1.53-2.75,1.01-3.45-2.23-3.48
			c-0.92-0.01-1.83,0-2.75,0c-0.06-0.07-0.12-0.14-0.17-0.22c0.06-0.07,0.11-0.15,0.17-0.22c2.49-0.77,4.78-0.26,6.96,1.04
			c0.83,0.49,1.69,0.95,2.54,1.42c0.73,1.11,0.13,2.1-0.37,3.01c-3.75,6.96-8.07,13.61-11.53,20.74c-0.36,0.74-0.86,1.2-1.68,1.3
			c0,0,0.03,0,0.03,0c-0.45-0.82-1.36-0.72-2.06-1.03C85.89,233.67,84.66,232.75,83.85,231.36z"/>
		<path class="st19" d="M93.41,208.35c-0.28,3.12-2.48,5.34-3.84,7.93c-1.76,3.36-3.84,6.56-5.8,9.82c-0.32,0.54-0.49,1.34-1.4,1.12
			c-0.79-0.19-0.8-0.9-1.02-1.53c-0.73-2.11-0.32-4.28-0.48-6.41c0.48-5,4.41-9.32,9.97-10.95c0.85-0.33,1.71-0.36,2.56,0.02
			L93.41,208.35z"/>
		<path class="st20" d="M47.84,65.79c0.17-0.94,0.67-1.59,1.59-1.89c0.88-0.78,1.96-0.76,3.05-0.76c4.64,0.02,9.29,0,13.93,0.01
			c1.36,0.44,0.95,1.42,0.5,2.17c-0.71,1.19-1.27,2.53-2.49,3.36c-1.77,0.42-3.57,0.21-5.36,0.18c-1.54-0.03-2.71,0.4-3.45,1.79
			c-2.04,1.96-3.81,2.24-5.95,0.96C47.7,70.44,47.11,68.54,47.84,65.79z"/>
		<path class="st21" d="M92.35,236.35c4.05,1.07,5.09-2.02,6.64-4.63c2.72-4.59,4.95-9.48,8.05-13.86c0.63-0.89,0.46-1.84-0.12-2.78
			c-0.55-0.89-1.46-1.62-1.49-2.79c4.48,4.3,5.37,11.52,2.11,17.15C104.38,234.92,97.02,238.04,92.35,236.35z"/>
		<path class="st22" d="M66.91,63.41c-4.61-0.01-9.23,0.02-13.84-0.04c-1.26-0.01-2.45,0.18-3.63,0.52c0.7-1.36,2.01-0.99,3.11-1
			c5.5-0.04,11-0.02,16.49-0.01c4.74,0.01,6.54,1.71,6.89,6.46c0.77,4.62,2.18,9.06,3.48,13.54c0.22,2.31-1.38,3.76-2.61,5.35
			c-0.4,0.52-1.04,0.26-1.38-0.35c-1.33-4.5-2.66-9-3.99-13.5c2.28-0.11,3.16-0.81,3.22-3.19c0.1-3.48-1.28-7.21-5.66-7.18
			C68.25,64.03,67.49,63.99,66.91,63.41z"/>
		<path class="st15" d="M147.36,210.97c3,0,5.99,0,8.99,0c0.03,0.67-0.5,0.83-0.96,0.88c-1.47,0.16-1.99,1.22-2.51,2.38
			c-0.51,1.15-0.19,1.67,1.02,1.84c1.55,0.22,3.11,0.12,4.67,0.07c2.32-0.08,4.64-0.07,6.95-0.03c3.11-0.12,6.21-0.02,9.32-0.02
			c2.33-0.05,4.67-0.05,7,0.02c1.56-0.05,3.13-0.08,4.69-0.01c2.86,0.1,5.73-0.15,8.59-0.04c1.13,0.04,2.32-0.14,3.23,0.8
			c-0.44,0.54-1.06,0.38-1.63,0.38c-16.15,0-32.3,0-48.45-0.01c-0.49,0-0.99-0.11-1.48-0.16c-1.2-0.03-2.84,0.45-3.45-0.56
			c-0.72-1.19,0.62-2.41,1.16-3.58C145.05,211.72,145.96,210.98,147.36,210.97z"/>
		<path class="st23" d="M131.26,217.07c-5.66,0.05-11.31,0.1-16.97,0.16c-1.79,0.02-2.24-1.34-2.83-2.65
			c-1.7-3.74-1.72-3.74,2.46-3.72c4.66,0.02,9.32,0.08,13.98,0.12c0.1,0.24,0.05,0.45-0.16,0.62c-1.33,0.63-2.76,0.33-4.15,0.38
			c-1.05,0.04-1.98,0.21-2.5,1.24c-0.34,0.65-0.96,1.33-0.74,2.04c0.3,0.95,1.28,0.4,1.94,0.47c0.9,0.1,1.79,0.28,2.69,0.4
			c1.31,0.05,2.62-0.05,3.92,0.04C129.77,216.22,130.76,216.04,131.26,217.07z"/>
		<path class="st24" d="M198.34,216.86c-3.97-0.03-7.94-0.05-11.91-0.08c-0.05-0.26,0-0.58,0.22-0.63c2.05-0.41,2.88-1.91,3.43-3.69
			c0.14-0.46,0.36-0.91,0.76-1.23c0.98-0.33,2.03,0.07,3.01-0.27c2.15-0.04,4.3-0.1,6.45-0.1c0.56,0,1.84-0.02,1.2,0.85
			C200.27,213.35,200.37,215.77,198.34,216.86z"/>
		<path class="st25" d="M87.87,203.78c2.66,1.25,3.65-1.29,4.16-2.57c2.09-5.27,5.47-9.75,8.18-14.63c2.25-4.05,3.82-8.46,5.7-12.71
			c0,0.33,0.01,0.67,0.01,1c-1.16,4.79-3.65,9.06-5.36,13.64c-1.66,4.43-3.74,8.7-5.41,13.12c-0.67,1.76-1.73,2.47-3.45,2.69
			c-1.15,0.14-2.27,0.54-3.42,0.64C86.89,205.08,87.3,204.41,87.87,203.78z"/>
		<path class="st26" d="M147.36,210.97c-2.36,1.01-2.81,3.37-3.98,5.46c1.24,0.23,2.32,0.44,3.41,0.64
			c-3.79,0.27-7.59,0.3-11.38-0.02c-1.25-1.85,0.17-5.58,2.27-5.93c0.56-0.09,1.14,0.07,1.69-0.14
			C142.02,210.97,144.69,210.97,147.36,210.97z"/>
		<path class="st27" d="M139.35,210.97c-2.84,0.8-4.54,3.43-3.96,6.08c-1.38,0.32-2.76,0.26-4.14,0.02
			c-2.26-0.53-4.56-0.03-6.83-0.3c0.95-1.94,2.43-3.53,3.46-5.42c0-0.12,0.01-0.25,0.01-0.37
			C131.72,210.97,135.54,210.97,139.35,210.97z"/>
		<path class="st28" d="M251.41,110.44c-1.37,6.66-2.71,13.32-4.11,19.96c-1.79,8.52-3.58,17.04-5.48,25.53
			c-1.08,4.84-1.8,9.77-3.34,14.5c-0.11-0.09-0.22-0.18-0.33-0.27c-1.05-2.99,0.49-5.71,1.01-8.49c1.05-5.62,2.38-11.19,3.56-16.79
			c1.11-5.28,2.37-10.52,3.39-15.82c1.08-5.62,2.39-11.2,3.57-16.8c0.22-1.05,0.16-2.23,1.58-2.5
			C251.58,109.92,251.63,110.15,251.41,110.44z"/>
		<path class="st29" d="M157.9,216.77c-0.74,0.02-1.48,0.06-2.22,0.06c-4.55-0.01-4.79-0.5-2.76-4.48c0.83-1.63,2.48-0.47,3.42-1.39
			c3.85,0,7.7,0,11.55,0c0.12,0.27,0.05,0.49-0.2,0.65c-0.22,0.13-0.46,0.22-0.71,0.27c-0.32,0.06-0.66,0.12-0.99,0.08
			c-3.11-0.36-5.78,0.07-6.88,3.59C158.95,216.11,158.33,216.39,157.9,216.77z"/>
		<path class="st29" d="M188.89,174.13l0.01-0.22c0.85-0.96,2-0.74,3.09-0.78c2.34-0.08,4.68-0.08,7.03-0.01
			c4.97-0.09,9.95,0.1,14.92,0.01c5.56,0.02,11.13-0.02,16.69,0.02c1.13,0.01,2.36-0.26,3.29,0.73c-0.53,0.58-1.23,0.41-1.87,0.41
			c-13.97,0.01-27.94,0-41.92-0.01C189.71,174.29,189.3,174.19,188.89,174.13z"/>
		<path class="st22" d="M55.41,70.38c0.84-1.52,2.09-2.14,3.85-2.01c1.71,0.12,3.44,0.02,5.15,0.02c3.93-1.67,6.49-0.65,7.32,2.92
			c0.17,0.75,0.27,1.47-0.34,2.09c-0.17,0-0.35,0.01-0.52,0.01c-0.06-0.05-0.18-0.1-0.18-0.16c-0.43-4.33-3.53-4.2-6.63-3.87
			c-2.7,0.29-5.61-0.98-8.07,1.06C55.77,70.68,55.58,70.66,55.41,70.38z"/>
		<path class="st30" d="M79.85,104.4c1.37,2.5,1.82,5.29,2.58,7.98c1.99,2.06,2.08,4.87,2.96,7.38c0.8,2.5,1.53,5.03,2.28,7.54
			c0.07,0.4,0.02,0.77-0.27,1.08c-0.2,0.01-0.39,0.02-0.59,0.03c-1.62-3.46-2.34-7.21-3.4-10.85
			C82.14,113.19,80.49,108.93,79.85,104.4z"/>
		<path class="st28" d="M233.91,173.89c-6.67-0.03-13.35-0.05-20.02-0.08c-0.02-0.33,0.11-0.58,0.38-0.76
			c1.41-0.67,2.93-0.41,4.4-0.43c4.13-0.03,8.27-0.06,12.4,0.01c2.14,0.04,4.12-0.13,5.7-1.8c0.39-0.41,0.95-0.66,1.59-0.5
			c0,0,0.13,0.1,0.13,0.1C237.57,172.4,236.29,173.88,233.91,173.89z"/>
		<path class="st4" d="M95.4,82.96c-4.16-0.02-8.31-0.04-12.47-0.09c-0.81-0.01-1.67,0.25-2.41-0.3c6.97-0.18,13.93-0.25,20.9,0.06
			c0,0-0.01,0.17-0.01,0.17C99.41,82.85,97.4,82.9,95.4,82.96z"/>
		<path class="st31" d="M128.93,173.81c1.49,0.03,2.98,0.06,4.47,0.1c0,0,0.01,0.22,0.01,0.22c-6.97,0.28-13.94,0.25-20.91,0.01
			c1.78-0.61,3.63-0.11,5.43-0.33c1.19-0.42,2.43-0.09,3.64-0.21C124.04,173.14,126.51,172.57,128.93,173.81z"/>
		<path class="st32" d="M55.41,70.38c0.2,0.02,0.39,0.04,0.59,0.07c-1.7,2.6-4.09,3.1-6.68,1.4c-2.13-1.4-2.78-4.07-1.48-6.05
			c0.02,0.58,0.08,1.16,0.07,1.74c-0.04,1.95,0.69,3.49,2.6,4.09C52.31,72.18,54.14,72.21,55.41,70.38z"/>
		<path class="st33" d="M251.41,110.44c-0.02-0.18-0.04-0.36-0.06-0.54c-0.72-0.7-0.59-1.6-0.59-2.47c0.8-3.19,1.45-6.41,2-9.66
			c0.16-0.92,0.34-1.81,1.49-2c0.33,0.15,0.38,0.37,0.15,0.65C253.66,101.15,252.63,105.81,251.41,110.44z"/>
		<path class="st9" d="M99.35,171.87c1.1,0.41,1.26,1.39,1.02,2.26c-0.89,3.25-1.72,6.56-4.04,9.2c0.65-1.76,1.17-3.59,1.98-5.27
			C99.28,176.06,99.69,174.05,99.35,171.87z"/>
		<path class="st34" d="M254.4,96.42c-0.02-0.17-0.04-0.35-0.06-0.52c-0.76-0.81-0.59-1.77-0.46-2.72c0.74-2.72,1.62-5.44,0.57-8.28
			c-0.28-0.45-0.45-0.92-0.24-1.45c0.19-0.25,0.4-0.27,0.63-0.05c1.57,0.85,1.86,2.33,1.58,3.85
			C255.84,90.32,255.08,93.36,254.4,96.42z"/>
		<path class="st35" d="M176.89,210.96c4,0,8,0,12,0c0.1,0.32,0,0.56-0.3,0.71c-1.4,0.57-2.87,0.33-4.32,0.38
			c-2.35-0.11-4.72,0.37-7.04-0.36C176.93,211.54,176.82,211.29,176.89,210.96z"/>
		<path class="st29" d="M241.89,82.66c3.67-0.17,7.35-0.57,11.01,0.21c-0.84,0.89-1.95,0.63-2.98,0.71c-2.49-0.14-5,0.27-7.48-0.27
			C242.16,83.18,241.98,82.96,241.89,82.66z"/>
		<path class="st36" d="M91.9,144.37c0.17,0.66,0.34,1.33,0.52,1.99c1.73,1.3,1.94,3.06,1.48,5c-0.18,0-0.36,0.01-0.54,0.01
			c-0.89-2.27-1.56-4.6-2.04-6.99C91.51,144.17,91.7,144.17,91.9,144.37z"/>
		<path class="st37" d="M176.89,210.96c0,0.12,0,0.25,0,0.37c-0.32,0.39-0.76,0.55-1.23,0.64c-2.6-0.04-5.28,0.81-7.77-0.64
			c0-0.12,0-0.24,0-0.36C170.89,210.97,173.89,210.97,176.89,210.96z"/>
		<path class="st38" d="M91.9,144.37c-0.19,0.01-0.39,0.02-0.58,0.02c-0.34-1.17-0.68-2.33-1.02-3.5
			C92.07,141.48,90.99,143.38,91.9,144.37z"/>
		<path class="st10" d="M241.89,82.66l0,0.15c-0.24,0.39-0.62,0.55-1.04,0.65c-1.25,0.09-2.51,0.28-3.71-0.29
			c-0.1-0.1-0.19-0.21-0.28-0.31c0,0,0.02-0.19,0.02-0.19C238.54,82.37,240.22,82.37,241.89,82.66z"/>
		<path class="st34" d="M188.89,211.33c0-0.12,0-0.24,0-0.37c1.65,0,3.31,0,4.96,0c-0.91,0.71-1.98,0.24-2.96,0.39
			C190.22,211.84,189.55,211.95,188.89,211.33z"/>
		<path class="st39" d="M249.88,82.95c1.01-0.03,2.01-0.05,3.02-0.08c0.69,0.02,1.44-0.18,1.95,0.53c-0.16,0-0.31,0.01-0.47,0.02
			c-0.22,0.17-0.45,0.31-0.7,0.43c-1.22,0.26-2.44,0.34-3.62-0.2C249.8,83.47,249.74,83.23,249.88,82.95z"/>
		<path class="st16" d="M87.3,234.37c0.82,0.08,1.96-0.47,2.06,1.03C88.53,235.36,87.89,234.91,87.3,234.37z"/>
		<path class="st17" d="M93.4,208.34c-0.85-0.01-1.7-0.01-2.56-0.02c0.78-0.62,1.67-0.49,2.56-0.41
			C93.41,208.05,93.4,208.2,93.4,208.34z"/>
		<path class="st36" d="M140.4,83.38c0.17,0,0.33,0.01,0.5,0.01c-3.47,7.01-7.52,13.7-11.33,20.52
			c-6.11,10.95-12.21,21.9-18.36,32.83c-3.8,6.74-7.67,13.44-11.51,20.16c-0.12,0.21-0.21,0.45-0.28,0.69
			c-0.43,1.36-1.11,3.19-2.26,3.28c-1.35,0.1-0.69-2.01-1.33-3.07c-0.85-1.41-0.98-3.26-1.41-4.93c4.4-7.04,8.33-14.37,12.36-21.62
			c3.87-6.96,7.75-13.92,11.65-20.86c3.54-6.29,6.75-12.77,10.6-18.89c1.24-1.97,2.24-4.07,3.33-6.13c0.49-0.93,0.82-2.06,2.13-2.21
			C136.45,83.28,138.44,82.86,140.4,83.38z"/>
		<path class="st38" d="M133.9,83.39c-2.49,5.95-6.21,11.22-9.23,16.89c-4.77,8.95-10,17.65-14.89,26.52
			c-4.58,8.32-9.12,16.65-13.99,24.81c-0.34,0.56-0.54,1.25-1.38,1.25c-0.17-0.5-0.34-1-0.51-1.5c-0.67-1.61-0.47-3.49-1.48-5
			c2.31-2.4,3.92-5.22,5.2-8.28c0.67-1.6,1.55-3.13,2.53-4.57c2.05-3.01,3.3-6.48,5.2-9.49c3.34-5.29,6.23-10.83,9.33-16.25
			c3.7-6.47,7.76-12.76,10.87-19.56c0.75-1.63,2.43-2.8,2.36-4.83C129.9,82.99,131.9,82.98,133.9,83.39z"/>
		<path class="st31" d="M133.92,173.81c0.37-0.56,0.94-0.44,1.48-0.46c2.26-0.94,3.48-3.03,4.27-5c2.66-6.62,7.09-12.21,10.3-18.52
			c3.77-7.4,8.3-14.42,12.21-21.74c4.15-7.77,8.62-15.36,12.84-23.09c3.26-5.97,6.46-12.01,10.13-17.76
			c0.74-1.15,1.77-2.33,0.75-3.87c0-0.15,0-0.29,0-0.44c1.83-0.12,3.61,0.05,5.44,0.34c1.62,0.27,1.5,0.82,0.92,1.92
			c-2.4,4.51-4.71,9.07-7.33,13.47c-2.88,4.83-5.47,9.84-8.29,14.7c-5.88,10.14-11.74,20.31-17.31,30.62
			c-4.77,8.84-10.49,17.19-14.45,26.45c-1.33,3.11-3.91,3.09-6.45,3.37C136.94,173.98,135.42,173.83,133.92,173.81z"/>
		<path class="st40" d="M128.93,173.81c-2.51,0-5.02,0-7.53-0.01c-0.16-0.1-0.22-0.2-0.16-0.3c0.05-0.1,0.11-0.15,0.16-0.15
			c0.17,0,0.33-0.01,0.5-0.01c0.2-0.15,0.43-0.35,0.65-0.34c3.8,0.19,4.72-2.66,6.27-5.33c3-5.18,5.84-10.45,8.83-15.64
			c4.79-8.28,9.4-16.66,14.1-24.99c3.92-6.95,7.67-13.99,11.72-20.88c2.6-4.43,5.39-8.8,7.4-13.58c0.91-2.17,2.46-3.95,3.55-6.01
			c0.79-1.49,1.34-2.63-1.11-2.72c-0.45-0.02-1.02-0.2-0.88-0.92c2.92-0.43,5.78,0.45,8.68,0.47c1.85,0.02,1.22,1.27,0.79,2.08
			c-1.5,2.83-3.14,5.59-4.7,8.4c-5.42,9.77-10.78,19.56-16.24,29.31c-5.38,9.59-10.87,19.13-16.28,28.71
			c-2.97,5.25-5.86,10.55-8.81,15.81c-0.85,1.51-1.8,2.97-2.62,4.49c-0.45,0.84-1.01,1.2-1.97,1.18
			C130.49,173.36,129.6,173.07,128.93,173.81z"/>
		<path class="st25" d="M105.91,173.85c1.35-0.59,2.02-1.64,2.64-3.01c1.09-2.39,2.49-4.68,3.99-6.84c2.1-3.02,3.53-6.38,5.3-9.56
			c3.69-6.62,7.72-13.06,11.29-19.74c2.26-4.24,4.53-8.47,6.94-12.62c4.69-8.08,9.06-16.33,13.64-24.46
			c2.68-4.76,5.23-9.62,8.18-14.23c1-0.39,2-0.38,3-0.01c0.33,0,0.67,0.01,1,0.01c0.86,1.2,0.22,2.25-0.41,3.21
			c-3.52,5.36-6.15,11.22-9.44,16.71c-2.22,3.7-4.37,7.47-6.41,11.25c-3.4,6.28-7.21,12.34-10.41,18.72
			c-2.43,4.84-5.37,9.39-7.95,14.14c-4.48,8.26-9.35,16.3-13.83,24.55c-0.28,0.52-0.63,0.98-1.04,1.39
			C110.21,173.13,108.07,173.64,105.91,173.85z"/>
		<path class="st41" d="M172.43,82.94c0.21,0.13,0.4,0.36,0.62,0.39c3.54,0.51,3.58,0.52,1.7,3.84c-3.5,6.19-6.6,12.63-10.28,18.69
			c-7.04,11.6-13.22,23.68-20.01,35.41c-4.17,7.2-8.41,14.39-12.22,21.81c-1.31,2.56-3.09,4.85-4.11,7.61
			c-1.06,2.87-3.66,2.9-6.22,2.67c3.74-6.63,7.56-13.21,11.2-19.89c3.79-6.95,7.79-13.79,11.5-20.79c2.32-4.37,4.88-8.65,7.36-12.95
			c3.54-6.13,7.16-12.23,10.51-18.45c2.89-5.37,6.06-10.56,9.05-15.86c0.75-1.33,0.32-1.98-1.24-2.05
			c-1.12-0.05-2.33,0.43-3.36-0.42C168.77,82.94,170.6,82.94,172.43,82.94z"/>
		<path class="st42" d="M112.4,173.35c0.89-3.89,3.37-7.01,5.33-10.31c2.36-3.98,4.66-8.02,6.89-12.05
			c2.95-5.36,6.21-10.55,9.01-15.99c1.82-3.54,3.76-7.01,5.7-10.48c2.94-5.24,5.97-10.44,8.89-15.7c3.7-6.66,7.36-13.34,10.95-20.06
			c0.94-1.77,2.97-3.01,2.72-5.38c0.83,0,1.67,0,2.5,0c0.75,0.89,0.34,1.77-0.15,2.53c-0.9,1.4-1.42,3.04-2.33,4.37
			c-3.42,5.03-5.59,10.75-8.84,15.85c-4.73,7.44-8.54,15.4-12.97,22.99c-4.06,6.95-7.84,14.04-11.9,21
			c-3.89,6.67-7.61,13.44-11.24,20.26c-0.64,1.19-1.29,2.33-2.56,2.96C113.74,173.35,113.07,173.35,112.4,173.35z"/>
		<path class="st42" d="M114.4,173.35c4.63-8.25,9.09-16.6,13.94-24.72c3.76-6.31,7.05-12.87,10.89-19.14
			c3.68-5.99,6.57-12.46,10.14-18.53c2.41-4.1,5-8.12,7.12-12.36c2.24-4.48,4.92-8.7,7.34-13.07c0.37-0.66,0.65-1.35,0.57-2.14
			c2.1,0.25,2.61,1.05,1.24,2.79c-2.87,3.63-4.48,7.93-6.75,11.88c-2.46,4.28-4.97,8.54-7.25,12.94c-2.22,4.28-4.93,8.35-7.25,12.62
			c-2.05,3.79-4.12,7.57-6.24,11.32c-3.93,6.95-7.92,13.87-11.86,20.82c-3.02,5.33-6.09,10.64-8.96,16.05
			C116.59,173.2,115.74,173.52,114.4,173.35z"/>
		<path class="st42" d="M160.9,83.38c-1,0-2,0.01-3,0.01c-0.98-0.17-2.08,0.38-2.96-0.45c1.99,0,3.97,0.01,5.96,0.01
			C160.9,83.09,160.9,83.24,160.9,83.38z"/>
		<path class="st41" d="M121.4,173.36c0,0.15,0,0.3,0,0.45c-1.16,0-2.31,0-3.47,0.01C118.99,172.92,120.25,173.54,121.4,173.36z"/>
		<path class="st4" d="M133.9,83.39c-2,0-4,0-6,0c-1.15-0.19-2.4,0.42-3.46-0.45c4.71-0.02,9.42-0.04,14.13-0.05
			c0.65,0,1.34-0.13,1.83,0.49C138.23,83.38,136.07,83.39,133.9,83.39z"/>
		<path class="st43" d="M249.88,82.95c0,0.14,0,0.29,0,0.43c-0.25,0.32-0.6,0.47-0.98,0.55c-5-0.82-7.81,1.3-9.9,5.96
			c-2.78,6.2-6.31,12.1-9.87,17.89c-5.42,8.79-9.81,18.14-15.27,26.9c-2.28,3.66-4.11,7.61-6.29,11.34
			c-4.28,7.32-8.18,14.86-12.51,22.15c-1.1,1.86-1.55,4.07-3.16,5.64c-1,0.04-2,0.07-3,0.11c-1-0.04-2-0.07-3-0.11
			c-0.75-1.19,0.13-2.08,0.63-2.96c6.73-11.68,13.31-23.45,19.9-35.22c5.16-9.22,10.44-18.36,15.54-27.61
			c3.57-6.48,7.45-12.78,10.75-19.41c0.92-1.85,2.41-3.37,3.14-5.34c0.37-0.14,0.75-0.12,1.14-0.12c1.28-0.11,2.59,0.24,3.86-0.2
			c0.35-0.04,0.69-0.09,1.04-0.13C244.55,82.85,247.22,82.9,249.88,82.95z"/>
		<path class="st29" d="M236.89,83.38c-0.33,0-0.67,0.01-1,0.01c-0.19,0.16-0.41,0.42-0.62,0.4c-3.23-0.37-4.16,2.1-5.33,4.27
			c-4.97,9.21-10.32,18.2-15.34,27.38c-3.54,6.48-7.12,12.93-10.76,19.34c-3.31,5.85-6.61,11.71-9.97,17.53
			c-3.8,6.62-7.55,13.27-11.19,19.97c-0.32,0.59-0.78,1.07-1.29,1.51c-0.25,0.01-0.5,0.04-0.75,0.04c-3.87-0.01-4.3-0.55-2.54-3.77
			c2.76-5.06,5.66-10.04,8.48-15.06c2.34-4.17,4.51-8.44,7.02-12.5c3.84-6.2,7.08-12.73,10.69-19.05
			c4.06-7.11,8.17-14.23,11.85-21.59c2.02-4.05,4.46-8.01,6.89-11.9c0.87-1.39,1.64-2.86,2.33-4.35c0.79-1.7,1.9-2.62,3.87-2.26
			c0.33,0.06,0.73-0.27,1.1-0.41c2.17-0.03,4.34-0.06,6.5-0.09c0,0,0.07,0.07,0.07,0.07c0.14,0.11,0.18,0.22,0.12,0.32
			C236.99,83.33,236.94,83.38,236.89,83.38z"/>
		<path class="st44" d="M181.4,173.81c1.68-4.25,4.26-8.02,6.39-12.03c4.02-7.56,8.43-14.91,12.54-22.43
			c2.03-3.72,4.21-7.42,6.38-11.1c3.9-6.61,7.45-13.42,11.19-20.12c2.37-4.24,4.85-8.43,7.23-12.67c2-3.57,3.98-7.17,5.88-10.8
			c1.2-2.3,3.26-0.85,4.88-1.27c0.05,1.26-0.09,2.29-1.18,3.31c-1.03,0.96-1.48,2.54-2.23,3.81c-4.22,7.15-8.07,14.52-12.28,21.68
			c-5.39,9.16-10.39,18.55-15.6,27.82c-5.94,10.59-11.92,21.15-17.87,31.73c-0.36,0.64-0.55,1.37-0.82,2.06
			c-0.34,0-0.69,0.01-1.03,0.01c-0.98-0.34-1.96-0.34-2.95,0C181.74,173.81,181.57,173.81,181.4,173.81z"/>
		<path class="st29" d="M181.92,173.81c0.98-0.71,1.97-0.71,2.95,0C183.88,173.81,182.9,173.81,181.92,173.81z"/>
		<path class="st45" d="M87.4,128.37c0-0.33,0-0.67,0.01-1c3.52-6.38,6.87-12.85,10.54-19.14c4.42-7.58,8.58-15.31,12.93-22.94
			c0.41-0.72,0.74-1.49,1.53-1.9c1.83,0,3.67,0,5.5,0c0.99,1.69-0.35,2.87-1.03,4.07c-3.28,5.77-6.42,11.63-9.73,17.4
			c-4.3,7.5-8.14,15.27-12.88,22.52c-1.08,1.66-1.19,3.84-2.6,5.36c-0.64,0.68-0.95,1.86-2.25,1.64
			C88.06,132.6,87.66,130.51,87.4,128.37z"/>
		<path class="st30" d="M89.41,134.37c1.72-1.7,2.85-3.66,3.69-6c0.87-2.42,2.7-4.48,3.98-6.78c3.64-6.54,7.03-13.23,10.88-19.64
			c3.33-5.56,6.27-11.32,9.54-16.9c0.32-0.54,0.41-1.07,0.41-1.65c1.66,0.04,4.03-0.56,4.8,0.28c1.08,1.19-1.18,2.4-1.79,3.72
			c-2.6,5.59-5.74,10.89-8.92,16.19c-2.19,3.65-4.05,7.57-6.14,11.32c-4.39,7.88-8.93,15.69-13.12,23.68
			c-0.38,0.72-0.92,1.62-1.8,1.5c-0.87-0.12-0.38-1.11-0.54-1.7C90.03,137.05,89.02,135.88,89.41,134.37z"/>
		<path class="st46" d="M112.4,83.39c-3.59,7.15-7.66,14.04-11.64,20.97c-3.24,5.64-6.19,11.45-9.44,17.08
			c-1.18,2.04-1.8,4.49-3.91,5.93c-1.62-2.24-1.69-4.99-2.5-7.5c2.11-4.02,4.8-7.7,6.86-11.75c2.7-5.31,5.83-10.38,8.59-15.66
			c1.64-3.14,3.6-6.1,5.54-9.07C108.07,83.39,110.23,83.39,112.4,83.39z"/>
		<path class="st47" d="M105.9,83.39c-0.7,2.49-2.2,4.54-3.5,6.74c-3.06,5.17-5.55,10.67-8.64,15.82
			c-2.83,4.71-4.82,9.98-8.86,13.93c-0.83-2.5-1.65-5-2.48-7.5c1.41,0.13,2.17-0.7,2.64-1.85c2.18-5.31,5.54-9.99,8.2-15.05
			c1.63-3.1,3.14-6.39,5.46-9.11c0.77-0.9,0.51-2.09,1.17-2.96C101.9,83.39,103.9,83.39,105.9,83.39z"/>
		<path class="st48" d="M75.43,87.89c0.73,0.44,1.44,0.19,1.61-0.49c0.43-1.72,1.87-2.86,2.37-4.51c2.92,1.03,5.93,0.31,8.9,0.49
			c2.24,0.14,2.41,0.48,1.34,2.48c-2.58,4.8-4.99,9.69-7.88,14.32c-0.43,0.69-0.64,1.83-1.52,1.81c-1.17-0.02-0.67-1.25-0.9-1.96
			C78.05,95.97,76.73,91.93,75.43,87.89z"/>
		<path class="st49" d="M71.4,73.39c-0.34-4.71-0.72-4.99-6.99-5c0.42-1.87,2.45-2.93,2.5-4.98c1.4,0.05,2.88-0.18,4.19,0.2
			c4.45,1.32,5.54,8.31,2.69,11.53c-1.53,1.73-1.33-1.28-2.35-0.76C71.42,74.05,71.41,73.72,71.4,73.39z"/>
		<path class="st14" d="M185.89,83.38c1.92-0.04,1.57,1.01,0.95,2.08c-2.39,4.18-4.86,8.3-7.09,12.58c-2.17,4.17-4.61,8.19-7,12.24
			c-2.41,4.1-4.73,8.26-6.99,12.44c-4.02,7.45-8.21,14.8-12.44,22.12c-2.47,4.28-4.26,8.94-7.18,12.96
			c-3.32,4.57-5.12,9.96-8.18,14.67c-0.79,1.21-1.69,0.7-2.58,0.88c4.9-8.66,9.82-17.3,14.68-25.98
			c3.83-6.84,7.53-13.75,11.37-20.58c5.03-8.97,10.14-17.89,15.02-26.94c2.54-4.71,5.93-8.94,7.62-14.13
			C184.37,84.83,185.28,84.15,185.89,83.38z"/>
		<path class="st35" d="M167.9,211.33c2.67,0.01,5.33,0.01,8,0.02c0.75,0.86,0.3,1.7-0.12,2.46c-0.52,0.94-0.78,1.92-0.91,2.97
			c-3.16,0-6.31,0-9.47-0.01c-0.95-2.4,1.17-3.67,2-5.42C167.56,211.35,167.73,211.34,167.9,211.33z"/>
		<path class="st34" d="M174.87,216.78c-0.72-0.58-1-1.08-0.28-2.01c0.74-0.96,1.4-2.08,1.31-3.41c0.33-0.01,0.67-0.01,1-0.02
			c2.5,0.01,5,0.01,7.5,0.02c0.17,2.26-1.5,3.69-2.49,5.42C179.55,216.77,177.21,216.78,174.87,216.78z"/>
		<path class="st37" d="M167.4,211.35c0.24,2.14-2.21,3.29-2,5.42c-2.5,0-5,0-7.49,0c0.74-1.47,1.52-2.92,2.22-4.41
			c0.43-0.92,1.15-1.05,2.04-1.04C163.91,211.37,165.65,211.35,167.4,211.35z"/>
		<path class="st50" d="M181.9,216.77c0.01-2.18,1.91-3.5,2.49-5.42c1.5-0.01,3-0.02,4.5-0.02c0.67,0.01,1.33,0.01,2,0.02
			c-0.45,2.66-1.09,5.17-4.46,5.43C184.92,216.78,183.41,216.77,181.9,216.77z"/>
		<path class="st51" d="M127.89,211.34c-0.17,2.43-1.68,4.02-3.46,5.42c-1-0.46-2.1-0.59-3.14-0.4c-2.02,0.38-2.4,0.01-1.53-2.01
			c0.9-2.1,1.87-3.47,4.43-3.05C125.39,211.51,126.66,211.34,127.89,211.34z"/>
		<path class="st52" d="M251.38,107.38c-0.01,0.84-0.02,1.67-0.04,2.51c-0.92,0.43-0.91,1.25-0.98,2.11
			c-0.22,2.63-1.03,5.13-1.61,7.69c-0.85,3.74-1.59,7.5-2.37,11.26c-0.82,3.93-1.63,7.86-2.45,11.79c-0.51,2.47-1.03,4.94-1.56,7.4
			c-0.46,2.16-0.97,4.32-1.39,6.49c-0.89,4.57-2.39,9.01-2.64,13.7c-2.19,2.89-5.18,3.23-8.57,3.08
			c-5.29-0.22-10.59-0.06-15.89-0.06c-0.04-0.12-0.08-0.23-0.12-0.35c0.93-3.98,3.63-7.05,5.51-10.53
			c4.56-8.46,9.45-16.76,14.11-25.17c4.51-8.13,9.28-16.1,13.55-24.36c0.88-1.7,2.11-3.18,3.03-4.86
			C250.23,107.59,250.67,107.13,251.38,107.38z"/>
		<path class="st39" d="M191.9,173.8c0.23-1.76,1.04-3.35,1.97-4.75c2.84-4.3,4.9-9.01,7.48-13.45
			c5.13-8.83,10.05-17.79,15.04-26.71c3.3-5.89,6.37-11.93,9.91-17.67c4.55-7.37,8.91-14.89,12.67-22.62
			c2.4-4.94,5.44-5.73,9.93-5.21c0.75,1.18-0.12,2.07-0.62,2.96c-3.94,7.03-8.08,13.95-11.87,21.05
			c-3.72,6.97-7.58,13.87-11.51,20.71c-3.73,6.48-7.25,13.09-11.01,19.56c-4.17,7.18-8.24,14.43-12,21.84
			c-0.79,1.56-1.65,3.09-2.97,4.28C196.56,173.8,194.23,173.8,191.9,173.8z"/>
		<path class="st34" d="M198.9,173.8c2.19-4.34,4.58-8.57,6.87-12.85c3.77-7.06,7.9-13.9,11.73-20.92
			c3.71-6.81,7.7-13.48,11.44-20.28c3.77-6.85,7.53-13.7,11.26-20.57c2.31-4.25,4.8-8.45,7.27-12.64c0.59-1,1.26-1.96,1.42-3.15
			c0.33,0,0.67-0.01,1-0.01c1.33,0.01,2.66,0.01,4,0.02c0.24,1.11-0.48,1.9-0.95,2.75c-3.01,5.45-6.04,10.89-9.05,16.34
			c-4.82,8.72-9.71,17.39-14.67,26.03c-8.09,14.12-15.71,28.5-24,42.5c-0.85,1.44-0.62,1.9,1.02,1.68c0.82-0.05,1.64-0.03,2.46-0.03
			c1.75,0.09,3.6-0.52,5.2,0.7c0,0,0.01,0.01,0.01,0.01c0,0.15,0,0.3-0.01,0.45C208.89,173.81,203.89,173.8,198.9,173.8z"/>
		<path class="st28" d="M213.89,173.35c-1.83,0-3.66,0-5.5,0c-0.77-1.91,0.77-3.11,1.52-4.47c3.71-6.67,7.88-13.08,11.06-20.05
			c1.25-2.74,3.09-5.12,4.58-7.71c5.56-9.66,10.78-19.51,16.38-29.15c2.07-3.57,4.17-7.17,5.91-10.93c1.34-2.89,3.5-5.26,4.94-8.09
			c0.3-0.58,0.99-1.56,1.59-0.08c-0.02,1.01-0.03,2.01-0.05,3.02c-1.79,1.8-1,4.35-1.78,6.49c-0.55,1.51-0.65,3.35-1.18,5
			c-1.67,1.13-2.36,3.09-3.14,4.67c-2.39,4.83-5.43,9.28-7.88,14.06c-1.92,3.74-4.07,7.35-6.1,11.03c-2.64,4.77-5.4,9.47-8,14.27
			c-2.47,4.57-5.25,8.97-7.7,13.56C217.06,167.79,215.45,170.56,213.89,173.35z"/>
		<path class="st33" d="M254.38,92.88c-0.97-0.82-1.06,0.22-1.33,0.67c-6.76,11.45-12.94,23.23-19.55,34.76
			c-3.65,6.36-7.35,12.73-10.91,19.12c-3.51,6.3-7.26,12.52-10.38,19.06c-1.12,2.35-3.13,4.25-3.83,6.86c-0.83,0-1.67,0-2.5,0
			c-0.92-1.22-0.06-2.25,0.45-3.22c3.79-7.22,7.99-14.21,11.96-21.32c2.39-4.28,4.71-8.61,7.13-12.86c1.51-2.66,2.79-5.47,4.58-7.97
			c1.8-2.52,2.85-5.46,4.38-8.11c4.03-6.96,7.88-14.01,11.91-20.97c2.41-4.17,4.68-8.42,7.03-12.63c0.41-0.73,0.68-1.54,1.55-1.86
			C256.39,87.32,255.54,90.11,254.38,92.88z"/>
		<path class="st53" d="M254.88,84.39c-4.97,9.38-10.08,18.66-15.63,27.72c-2.95,4.81-5.12,10.09-8.01,14.94
			c-3.41,5.74-6.82,11.5-9.88,17.39c-3.69,7.09-8.21,13.69-11.62,20.93c-1.25,2.66-3.29,4.96-3.85,7.98
			c-2.56-0.07-2.7-0.29-1.4-2.36c4.38-6.98,8.07-14.35,12.1-21.53c2.8-4.98,5.75-9.88,8.45-14.92c4.05-7.54,8.42-14.91,12.62-22.36
			c3.29-5.85,6.42-11.8,9.94-17.54c2.23-3.64,4.02-7.58,6.28-11.24c0.17,0.01,0.34,0.02,0.5,0.02
			C254.39,83.82,254.49,84.18,254.88,84.39z"/>
		<path class="st44" d="M236.89,83.38c0-0.15,0.01-0.31,0.04-0.46c1.31,0,2.62,0.01,3.93,0.01
			C239.61,83.84,238.2,83.18,236.89,83.38z"/>
	</g>
	<g>
		<g>
			<path class="st54" d="M316.33,186.89c-2-1.33-3.66-2.99-4.99-4.98c-4.25-5.78-7.14-12.21-8.95-19.12
				c-1.07-4.07-1.29-8.29-1.96-12.43c-0.15-1.33,0.12-2.68-0.22-3.99c-0.11-0.8-0.08-1.6-0.03-2.39c0.36-1.17,0.14-2.38,0.21-3.57
				c0-0.67,0.27-1.31,0.3-1.98c0.67-5.29,1.69-10.5,3.91-15.39c3.09-6.86,8.32-12.05,13.26-17.54c3.88-4.31,8.28-7.55,13.5-9.89
				c5.53-2.48,11.26-3.75,17.34-3.48c1.13,0.05,2.08,0.53,3.11,0.82c4.72,1.33,9.59,2.17,13.84,4.98c3.21,2.12,6.31,4.26,8.5,7.49
				c3.33,4.69,5.66,9.68,5.51,15.64c-0.08,3.16,1.14,6.15,1.94,9.19c0.78,4.22,2.16,8.33,2.04,12.71
				c-0.23,8.12-2.48,15.68-6.41,22.73c-3.01,5.39-6.77,10.24-11.35,14.4c-2.82,2.57-5.85,4.87-9.19,6.72
				c-1.03,1.04-2.49,1.33-3.67,2.11c-0.65,0.42-1.46,0.51-2.07,1.02l0.01-0.01c-2.87,1.05-5.72,2.21-8.77,2.67
				c-4.33,0.82-8.63,0.92-12.98,0.04c-2.18-0.44-4.3-1-6.32-1.92c-1.49-0.36-2.6-1.45-3.95-2.06
				C317.83,188.39,317.33,187.26,316.33,186.89z"/>
			<path class="st55" d="M313.79,117.35c2.46-6.91,7.92-10.76,14.13-13.85c1.27-0.82,2.74-1.11,4.15-1.57
				c1.16,0.11,2.12,0.35,1.23,1.83c-7.66,3.55-13.88,8.87-18.94,15.57c-0.7,0.45-1.11,0.31-0.95-0.57
				C313.49,118.29,313.61,117.81,313.79,117.35z"/>
			<path class="st56" d="M365.23,157.77c-0.46,1.69-0.93,3.39-1.39,5.08c-1.07,1.58-1.71,3.44-3.05,4.86
				c-2.34,1.36-4.68,2.72-7.03,4.08c-3.79,1.19-7.65,2.04-11.56,2.79c-3.8,0.73-6.81-0.35-9.57-2.79
				c-4.58-4.05-7.04-9.35-8.71-15.06c-2.94-10.06-2.6-20.39-1.86-30.66c0.38-5.24,2.44-9.72,7.4-12.79
				c2.33-1.44,4.49-3.21,7.04-4.33c1.02,0.05,1.94-0.35,2.91-0.6c2.44-0.64,4.75-0.15,7.25,0.28c9.84,1.69,11.71,10.09,15.14,17.14
				c2.18,4.48,2.74,9.5,3.97,14.29C365.86,145.96,366.43,151.89,365.23,157.77z"/>
			<path class="st57" d="M370.02,163.45c0.66-0.08,1.37-0.23,1.29,0.83c-2.77,7.73-7.87,13.3-15.36,16.69
				c-0.44,0.2-0.81,0.54-1.22,0.81c-2.75,0.61-5.44,1.51-8.28,1.63c-1.04,0.04-2.11,0.23-3.69-0.49c5.36-2.68,11.11-3.58,15.3-7.45
				C362.22,171.63,366.55,167.96,370.02,163.45z"/>
		</g>
		<g>
			<path class="st54" d="M762.86,197.43c-4.43,4.21-9.91,4.55-15.57,4.22c-4.23-0.25-8.46-0.52-12.69-0.77
				c-7.22-0.43-13.04-3.87-18.34-8.47c-0.48-1.26-1.91-1.82-2.3-3.15c-1.94-3.28-3.51-6.69-3.89-10.54
				c-0.77-9.43,2.24-17.69,7.81-25.16c0.37-1.09,1.43-1.71,1.9-2.73c0.16-0.48,0.43-0.85,0.93-1.02c3.06-3.13,6.02-6.37,9.5-9.05
				c4.67-3.58,9.74-5.81,15.81-4.63c2.24,0.6,4.51,0.83,6.83,0.76c2.61-0.08,5.03,0.61,7.24,2.03c1.13,0.56,2.11,1.39,3.26,1.92
				l0-0.01c1.35,1.06,3.13,1.53,4.18,3.01c4.26,3.73,7.02,8.46,8.93,13.7c0.4,1.09,0.87,2.13,1.39,3.16
				c0.47,0.64,0.49,1.51,1.05,2.11c1.63,3.69,2.14,7.45,0.78,11.35c-0.82,2.34-1.66,4.68-2.42,7.04c-1.81,5.6-6.14,9.1-10.41,12.68
				C765.29,194.8,764.25,196.31,762.86,197.43z"/>
			<path class="st54" d="M616.91,144.31c2.04,1.86,3.75,3.97,4.99,6.45c2.38,3.63,3.46,7.85,5.32,11.73
				c1.9,3.97,2.06,8.29,0.43,12.57c-1.38,3.63-2.34,7.43-4.28,10.84c-0.93,1.53-2.11,2.85-3.52,3.96c-1.35,0.8-2.28,2.08-3.47,3.07
				c-2.48,2.32-4.79,4.86-7.75,6.57c-3.89,2.24-8.2,2.44-12.56,2.16c-4.89-0.31-9.8-0.51-14.68-0.92c-2.9-0.24-5.65-1.15-8.1-2.81
				c-4.06-2.25-8.16-4.45-10.7-8.6c-3.55-5.8-5.1-11.96-3.7-18.76c0.45-2.2,0.8-4.4,1.69-6.46c0.62-1.19,0.93-2.52,1.58-3.71
				c1-2.17,2.62-3.96,3.62-6.13c0.83-1.74,2.12-3.13,3.47-4.46c3.61-3.77,7.13-7.64,11.55-10.5c4.18-2.72,8.63-4.47,13.76-3.13
				c2.43,0.63,4.9,0.75,7.4,0.71c2.2-0.03,4.23,0.69,6.18,1.67C611.03,140.52,614.09,142.22,616.91,144.31z"/>
			<path class="st54" d="M533.78,153.89c-0.66-1.15-1.33-2.31-1.99-3.46c-0.61-1.32-1.86-2.08-2.75-3.16
				c-2.65-2.76-5.7-1.68-8.52-0.61c-4.3,1.64-8.47,3.63-12.05,6.64c-0.17,2.56-0.27,5.11,0.08,7.66c0.09,1.11,0.02,2.22,0.04,3.33
				c0.25,7.74,1.55,15.28,4.47,22.49c0.66,1.64,0.91,3.18-0.38,4.63c-0.93,1.78-2.27,3.23-3.78,4.53c-0.41,0.82-1.27,1.06-1.98,1.44
				c-1.45,0.78-2.63,0.71-3.26-1.19c-0.52-1.56-0.98-3.88-2.08-4.32c-1.57-0.63-2.13,2.07-3.57,2.81c-0.44,0.23-0.79,0.61-1.22,0.86
				c-2.02,1.18-2.82,0.84-3.24-1.44c-1.28-7.04-1.99-14.18-2.39-21.3c-0.66-11.89-0.42-23.78,1.31-35.61
				c0.54-3.7,2.87-6.01,5.35-8.35c1.04-0.42,1.55-1.72,2.83-1.75c1.48-0.28,1.69,0.68,1.67,1.78c-0.02,1.65,0.14,3.31-0.13,4.96
				c-0.13,0.8-0.46,1.8,0.34,2.31c1.02,0.64,1.6-0.47,2.32-0.94c0.5-0.14,0.83-0.55,1.27-0.77c2.11-1.06,3.06-0.47,3.22,1.84
				c0.13,1.93-0.29,3.79-0.58,5.67c-0.14,0.89-0.56,1.92,0.47,2.46c0.85,0.46,1.28-0.53,1.83-0.95c5.2-4,10.53-7.77,16.9-9.73
				c4.07-1.26,8.23-1.91,12.49-1.29c3.46,0.5,5.05,3.22,5.95,6.07c2.18,6.98,2.68,14.26,3.18,21.52c0.04,3.56,0.41,7.11,0.02,10.67
				c-0.47,4.26,0.58,8.39,1.17,12.56c0.3,2.13-0.06,3.83-2.12,5.07c-2.5,1.51-4.33,3.85-6.42,5.87c-0.65,0.63-1.23,1.3-2.24,1.46
				c-1.25,0.2-1.92-0.1-1.91-1.48c0.01-1.14-0.6-1.36-1.65-1.08c-2.38,0.63-3.23-0.18-2.3-2.54c0.94-2.39,1.53-4.86,2.33-7.27
				c1.83-5.48,2.07-11.02,1.23-16.67C536.63,162.3,535.85,157.9,533.78,153.89z"/>
			<path class="st54" d="M697.88,180.95c-0.69,0.83-1.48,1.53-2.48,1.97c-1.03,0.65-2.11,1.21-3.04,2c-0.83,0.65-1.67,1.31-2.5,1.96
				c-0.98,0.49-1.65,1.37-2.51,2.01l0-0.01c-4.78,3.48-9.54,6.99-15.27,8.85c-4.43,1.93-8.78,1.21-13.05-0.51
				c-1.14-0.46-2.37-0.82-3.38-1.58c-2.49-1.09-4.59-2.83-6.9-4.24c-4.66-3.39-8.91-7.21-12.15-12.03
				c-5.29-7.86-5.06-15.73,0.63-24.1c0.46-0.68,1.03-1.29,1.55-1.93c1.93-2.39,4.05-4.63,6.01-7l-0.01,0
				c0.88-1.13,1.93-2.09,2.94-3.1c1.18-1.14,2.27-2.39,3.56-3.42l0,0.01c3.13-2.16,6.35-4.17,9.82-5.75
				c6.45-2.84,12.99-5.3,20.22-4.95c2.56-0.29,5.13-0.3,7.69-0.25c1.42,0.03,2.45-0.46,3.37-1.66c1.4-1.84,3.01-3.52,4.83-4.99
				c0.58-0.47,1.17-1.13,1.94-0.84c0.84,0.32,1.08,1.22,1.13,2.06c0.15,2.73,0.02,5.45-0.56,8.14c-0.2,0.91-0.41,1.88,0.15,2.66
				c1.04,1.43,0.47,2.65-0.28,3.89c-2.23,2.46-2.05,5.78-2.97,8.7c-0.27,0.87-0.56,1.71-0.95,2.52c-1.15,2.4-1.05,2.8,1.23,4.45
				c1.23,0.54,1.06,1.28,0.25,2.06c-2.48,2.4-4.97,4.8-7.47,7.18c-0.54,0.52-1.09,0.98-1.92,0.29c-1.34-1.11-2.9-2.07-2.71-4.11
				c0.09-0.97,0.46-1.92,0.7-2.87c0.17-3.52,1.11-7.02,0.32-10.57c-0.05-1.26-0.54-2.19-1.74-2.78c-2.31-1.13-4.56-2.41-7.09-2.97
				c-3.48-0.77-6.85-0.84-9.97,1.44c-2.34,1.71-4.86,3.17-7.14,4.96c-4.2,3.39-8.22,6.99-11.44,11.34
				c-2.52,3.41-2.36,6.09,0.49,9.15c2.43,2.62,4.68,5.33,6.78,8.22c1.71,2.35,4.09,4.08,6.87,5.14c2.95,2.05,6.34,2.11,9.72,2.06
				c3.86-0.05,7.74-0.14,11.42-1.56c2.54-0.98,5.14-1.82,7.55-3.12c3.5-1.42,6.31-3.78,8.81-6.56c0.81-0.84,1.85-1.38,2.82-2
				c0.61-0.39,1.32-0.99,2.02-0.37c0.78,0.69,0.28,1.51-0.07,2.26c-1.13,2.48-2.52,4.81-4.22,6.95l0.02-0.01
				C699.94,178.98,698.93,179.98,697.88,180.95z"/>
			<path class="st54" d="M407.78,206.39c-1.42-1.21-2.14-2.91-2.73-4.56c-0.74-2.07-1.5-2.08-2.82-0.58
				c-0.53,0.61-1.19,1.1-1.79,1.65c-0.55,0.2-1.03,0.52-1.55,0.78c-1.4,0.69-2.3,0.35-2.96-1.1c-1.09-2.39-1.23-4.97-1.52-7.49
				c-0.82-7.04-1.01-14.15-2.28-21.15c-1.11-5.94-1.89-11.93-2.66-17.93c-0.37-2.88-0.23-5.53,2.88-6.95
				c0.99-3.55,2.78-6.6,5.6-9.05c0.75-0.65,1.51-1.27,2.37-1.76c0.54-0.21,1.33-0.55,1.62-0.1c1.27,1.98,2.33,0.45,3.46-0.08
				c0.61-0.44,1.13-0.35,1.36,0.37c0.33,1.01,0.85,1.38,1.84,0.82c1.88-1.06,1.71,0.27,1.63,1.43c-0.1,1.41-0.42,2.8-0.36,4.22
				c0.03,0.64-0.19,1.43,0.57,1.77c0.79,0.35,1.19-0.39,1.66-0.81c3.61-3.19,7.26-6.38,11.79-8.17c5.56-2.19,11.2-3.04,16.67,0.44
				c2.67,1.26,5.63,1.93,7.3,4.85c1.66,2.9,2.1,6.06,2.72,9.21c0.17,0.86-0.14,1.46-1.19,1.41c-1.58-0.07-2.31,0.9-2.92,2.23
				c-0.85,1.87-1.41,3.87-2.54,5.62c-1.47,0.85-2.73,1.16-2.81-1.21c-0.03-0.98-0.44-1.56-1.46-1.65c-1.54-0.12-2.51-1.18-3.49-2.2
				c-3.39-3.84-7.96-3.88-12.42-3.44c-3.59,0.35-7.09,1.46-10.32,3.3c-4.28,2.45-3.79,3.31-3.45,7.29
				c0.47,5.44,2.14,10.62,4.03,15.73c0.57,1.75,1.54,3.4,0.32,5.35c-0.7,1.13,0.13,2.46,0.41,3.6c0.66,2.71,1.77,5.28,1.97,8.14
				c0.09,1.3,1.89,2.36,0.72,4c-1.92,2.7-3.91,5.33-6.91,6.96C409.28,208.03,408.51,207.23,407.78,206.39z"/>
			<path class="st58" d="M473.91,124.95c-2.03,3.54-4.47,6.78-7.3,9.71c-0.74,0.76-1.66,1.42-2.61,1.87
				c-1.1,0.52-2.18,0.51-2.14-1.22c0.15-5.79-0.96-11.69,1.05-17.34c1.36-3.82,2.98-7.56,6.36-10.16c0.92-0.4,1.58-1.27,2.56-1.51
				c1.07-0.26,2.32-0.93,2.82,0.84c0.07,0.24,0.26,0.43,0.5,0.53c0.87,0.38,2.51-0.33,2.4,1.41c-0.17,2.69,1.73,5.58-0.73,8.06
				c-1.7,1.72-0.96,4.32-2.2,6.23C474.33,123.84,474.1,124.41,473.91,124.95z"/>
			<path class="st56" d="M764.78,166.4c0.69,1.31,1.58,2.56,2.04,3.94c1.82,5.4,1.16,7.36-3.56,11.42
				c-9.69,5.35-19.82,7.16-30.45,3.27c-4.69-1.71-8.1-5.01-9.92-9.78c-2.38-9.18,1.1-16.59,6.99-23.29
				c3.47-2.29,7.43-1.98,11.03-1.19c5.8,1.28,11.33,3.55,15.87,7.65c1.98,1.83,3.95,3.67,5.93,5.5
				C763.43,164.72,764.24,165.45,764.78,166.4z"/>
			<path class="st54" d="M472.36,137.86c0.07,1.2,0.64,1.79,1.78,1.13c2.26-1.31,2.34,0.06,2.21,1.71
				c-0.6,7.72-0.65,15.46-0.46,23.18c0.17,6.63,0.92,13.21,2.24,19.72c0.43,2.11,0.77,4.23,1.19,6.35c0.69,3.53-2.28,5.29-4.03,7.58
				c-1.71,2.24-4.79,2.13-6.95,3.68c-0.43,0.31-0.93-0.06-1.26-0.51c-0.24-0.32-0.56-0.87-0.83-0.86c-4.63,0.11-3.28-3.83-3.81-6.06
				c-2.03-8.57-0.38-17.42-1.59-26.06c-0.7-4.98-0.24-9.97-0.54-14.93c-0.32-5.29,2.22-9.05,6.13-12.13
				c1.24-0.97,2.68-1.68,3.91-2.66C471.08,137.41,471.66,137.47,472.36,137.86L472.36,137.86z"/>
			<path class="st56" d="M606.31,159.37c0.34,0.66,0.89,1.07,1.55,1.36c2.77,2.96,5.84,5.65,7.4,9.57
				c1.81,4.56,0.73,8.84-3.52,11.22c-7.88,4.41-16.31,6.35-25.37,4.58c-0.81-0.16-1.65-0.19-2.47-0.28
				c-2.15-1.01-4.3-2.02-6.45-3.03c-1.04-0.98-2.08-1.96-3.13-2.94c-0.84-1.33-1.68-2.66-2.52-3.99c-2.87-8.54,0.48-15.64,5.2-22.41
				c3.88-3.7,8.55-2.99,13.1-2.13C596.23,152.47,601.47,155.57,606.31,159.37z"/>
		</g>
	</g>
</g>
</svg>
